<svg xmlns="http://www.w3.org/2000/svg" width="142" height="42" fill="none"><path fill="#fff" d="M15.731 27.244 19.5 23.36l4.286 3.885h7.347l-11.68-11.24-11.587 11.24z"/><path fill="#fff" d="m26.518 9.205-5.558 5.55 3.674 3.7 1.884-1.85L36.833 26.69c-2.355 6.152-8.384 10.547-15.496 10.547-9.138 0-16.533-7.262-16.533-16.236.047-8.974 7.442-16.236 16.58-16.236 8.101 0 14.884 5.782 16.25 13.322l4.992 5.18c.094-.74.142-1.526.142-2.266 0-5.597-2.214-10.87-6.265-14.848C32.453 2.174 27.083 0 21.383 0 15.639 0 10.316 2.174 6.265 6.152S0 15.357 0 21s2.214 10.87 6.264 14.848S15.684 42 21.384 42s11.069-2.174 15.12-6.152c2.495-2.451 4.285-5.366 5.274-8.557.189-.555.33-1.157.471-1.712l-4.333-4.486zm33.893 4.29h3.145l-1.715 8.468h5.304l-.508 2.45h-8.449zm9.694 0h3.144l-2.223 10.917h-3.144zm8.034 2.385-.492 2.403h4.907l-.492 2.386H77.17l-.762 3.743h-3.145l2.224-10.917h8.703l-.492 2.386zm10.141 0-.364 1.841h4.939l-.46 2.308h-4.956l-.397 1.997h5.829l-.508 2.386h-8.91l2.223-10.917h8.703l-.492 2.386zm9.925.063H94.79l.509-2.448h9.957l-.508 2.448h-3.398l-1.731 8.47h-3.145zm11.848 8.687q-1.684 0-2.938-.608-1.24-.608-1.922-1.7-.667-1.092-.667-2.495 0-1.872.873-3.37a6.2 6.2 0 0 1 2.462-2.339q1.589-.842 3.605-.842 1.684 0 2.922.608 1.255.61 1.922 1.7.683 1.092.683 2.496 0 1.871-.889 3.369-.874 1.497-2.462 2.34-1.572.84-3.589.841m.27-2.557q1.048 0 1.842-.515.794-.514 1.223-1.373a4.3 4.3 0 0 0 .429-1.918q0-1.107-.699-1.762-.683-.67-1.922-.671-1.048 0-1.842.515a3.4 3.4 0 0 0-1.223 1.388 4.2 4.2 0 0 0-.429 1.903q0 1.106.683 1.778.699.654 1.938.655m12.573 2.557q-1.444 0-2.493-.467-1.049-.484-1.604-1.373-.556-.89-.556-2.09 0-.499.127-1.154l1.239-6.051h3.144l-1.223 6.004a4.4 4.4 0 0 0-.095.858q0 1.716 1.842 1.716 1.001 0 1.573-.593.587-.609.873-1.98l1.223-6.005h3.097l-1.255 6.191q-1.015 4.944-5.892 4.945Zm18.52-7.657q0 1.496-.81 2.589-.81 1.075-2.271 1.575l1.89 3.275h-3.287l-1.652-2.9h-1.588l-.588 2.9h-3.144l2.223-10.917h4.749q2.129 0 3.303.92 1.175.92 1.175 2.558m-3.176.296q0-.67-.461-.998-.46-.344-1.286-.344h-1.652l-.667 3.198h1.874q1.048 0 1.62-.484.572-.483.572-1.372M60.282 34.706a2.2 2.2 0 0 1-1.044-.25 1.9 1.9 0 0 1-.73-.694 1.9 1.9 0 0 1-.26-.987q0-.548.26-.987.265-.44.73-.69.469-.255 1.044-.254.574 0 1.033.25a1.87 1.87 0 0 1 .994 1.682q0 .546-.265.992a1.87 1.87 0 0 1-.73.689q-.458.25-1.032.25Zm0-.358q.458 0 .828-.2.37-.207.58-.565.21-.363.21-.808t-.21-.803a1.46 1.46 0 0 0-.58-.564 1.7 1.7 0 0 0-.828-.206q-.459 0-.834.206a1.5 1.5 0 0 0-.586.564q-.21.358-.21.803t.21.808q.216.358.585.565.376.2.835.2m4.406-2.549q.408 0 .74.184.33.18.52.51a1.5 1.5 0 0 1 .187.754q0 .429-.188.76a1.33 1.33 0 0 1-.52.515q-.325.18-.74.179-.353 0-.64-.141a1.2 1.2 0 0 1-.464-.423v1.59h-.392V31.82h.375v.564q.177-.282.464-.434.293-.15.658-.151m-.028 2.56q.304 0 .552-.136a1 1 0 0 0 .387-.396q.144-.255.144-.58 0-.326-.144-.575a1 1 0 0 0-.387-.396 1.1 1.1 0 0 0-.552-.141q-.309 0-.558.14-.242.142-.387.397a1.2 1.2 0 0 0-.138.575q0 .325.138.58.144.255.387.397.249.135.558.135m4.372-2.197H67.37v2.512h-.392V31.82h2.055v.342Zm1.568-.363q.569 0 .872.282.304.276.304.824v1.769H71.4v-.445a.9.9 0 0 1-.392.347q-.255.125-.608.125-.486 0-.773-.228a.73.73 0 0 1-.287-.602q0-.364.265-.586.27-.222.856-.222h.923v-.174q0-.369-.21-.559-.21-.195-.614-.195-.275 0-.53.092a1.3 1.3 0 0 0-.436.244l-.177-.287a1.5 1.5 0 0 1 .53-.282 2 2 0 0 1 .652-.104Zm-.139 2.598q.33 0 .57-.146a.9.9 0 0 0 .353-.434v-.467h-.912q-.746 0-.746.51a.47.47 0 0 0 .194.396q.194.141.541.141m2.359-2.577h.392v1.264h1.829V31.82h.392v2.854h-.392v-1.259h-1.829v1.259h-.392zm3.728 0h.392v2.268l1.939-2.268h.348v2.854h-.392v-2.268L76.9 34.674h-.353zm5.158 1.367a.9.9 0 0 1 .475.244.58.58 0 0 1 .17.424.64.64 0 0 1-.176.444 1.1 1.1 0 0 1-.47.304 2 2 0 0 1-.657.103q-.315 0-.618-.087a1.7 1.7 0 0 1-.53-.265l.132-.288q.198.147.464.228.265.081.536.081.404 0 .657-.146.26-.152.26-.407a.39.39 0 0 0-.21-.353q-.21-.13-.575-.13h-.497v-.282h.475q.325 0 .525-.12.198-.124.199-.33 0-.228-.227-.358-.22-.13-.58-.13-.47 0-.928.233l-.11-.298a2.34 2.34 0 0 1 1.077-.266q.33 0 .597.097.27.093.42.266.154.174.154.402a.55.55 0 0 1-.155.385.9.9 0 0 1-.408.25Zm2.536-1.388q.57 0 .873.282.304.276.304.824v1.769h-.376v-.445a.9.9 0 0 1-.392.347q-.254.125-.608.125-.486 0-.773-.228a.73.73 0 0 1-.287-.602q0-.364.265-.586.27-.222.856-.222h.922v-.174q0-.369-.21-.559-.21-.195-.613-.195-.275 0-.53.092a1.3 1.3 0 0 0-.436.244l-.177-.287a1.5 1.5 0 0 1 .53-.282 2 2 0 0 1 .652-.104Zm-.138 2.598q.331 0 .569-.146a.9.9 0 0 0 .353-.434v-.467h-.911q-.746 0-.746.51a.47.47 0 0 0 .194.396q.193.141.541.141m5.386-.06v1.053h-.37v-.716h-2.657V31.82h.392v2.517h1.773V31.82h.392v2.517zm.749-2.517h.392v2.268l1.94-2.268h.347v2.854h-.392v-2.268l-1.933 2.268h-.354zm6.035 0v2.854h-.36v-.944h-1.021l-.674.944h-.425l.723-.998a1 1 0 0 1-.519-.315.86.86 0 0 1-.182-.564q0-.477.331-.727.332-.25.906-.25h1.22Zm-2.06.988q0 .634.823.634h.878v-1.28h-.85q-.852 0-.852.646Zm7.231-.988v2.854h-.392v-2.512H99.23v2.512h-.392V31.82zm2.314 2.88q-.42.001-.757-.184a1.4 1.4 0 0 1-.53-.52 1.46 1.46 0 0 1-.193-.749q0-.418.193-.749.194-.33.53-.515.337-.184.757-.184c.42 0 .532.061.757.184q.336.185.525.515.193.33.193.749 0 .417-.193.749-.189.33-.525.52a1.55 1.55 0 0 1-.757.185Zm0-.34q.309 0 .552-.136a1 1 0 0 0 .387-.397 1.2 1.2 0 0 0 .138-.58 1.2 1.2 0 0 0-.138-.58.95.95 0 0 0-.387-.391 1.1 1.1 0 0 0-.552-.141q-.309 0-.558.14a1 1 0 0 0-.387.392 1.2 1.2 0 0 0-.138.58q0 .325.138.58.144.255.387.397.249.135.558.135Zm4.028.314-.922-1.194-.929 1.194h-.441l1.149-1.465-1.094-1.389h.442l.873 1.118.872-1.118h.431l-1.094 1.389 1.16 1.465zm2.187.026q-.42.001-.757-.184a1.4 1.4 0 0 1-.531-.52 1.47 1.47 0 0 1-.193-.749q0-.418.193-.749.194-.33.531-.515.337-.184.757-.184t.756.184q.338.185.525.515.193.33.193.749 0 .417-.193.749-.187.33-.525.52a1.55 1.55 0 0 1-.756.185Zm0-.34q.309 0 .552-.136a1 1 0 0 0 .387-.397 1.2 1.2 0 0 0 .138-.58 1.2 1.2 0 0 0-.138-.58.95.95 0 0 0-.387-.391 1.1 1.1 0 0 0-.552-.141q-.31 0-.558.14a1 1 0 0 0-.387.392 1.2 1.2 0 0 0-.138.58q0 .325.138.58.144.255.387.397.248.135.558.135Zm5.13-.023v1.026h-.37v-.69h-2.602v.69h-.37v-1.026h.166q.293-.016.398-.423c.105-.407.118-.65.143-1.139l.039-.955h2.143v2.517zm-2.276-1.54q-.027.608-.105 1.003-.077.39-.276.537h1.812v-2.175h-1.397zm4.239 1.903q-.42.001-.756-.184a1.4 1.4 0 0 1-.531-.52 1.46 1.46 0 0 1-.193-.749q0-.418.193-.749.194-.33.531-.515.337-.184.756-.184.42 0 .757.184.338.185.525.515.193.33.193.749 0 .417-.193.749-.187.33-.525.52a1.55 1.55 0 0 1-.757.185Zm0-.34q.31 0 .553-.136a1 1 0 0 0 .386-.397q.14-.255.139-.58 0-.325-.139-.58a.95.95 0 0 0-.386-.391 1.1 1.1 0 0 0-.553-.141q-.309 0-.558.14a1 1 0 0 0-.386.392 1.2 1.2 0 0 0-.138.58q0 .325.138.58.144.255.386.397.249.135.558.135Zm4.164-1.162q.591.136.591.7 0 .375-.282.575-.28.2-.839.2h-1.32V31.82h1.281q.497 0 .779.19a.62.62 0 0 1 .282.543.63.63 0 0 1-.133.401.76.76 0 0 1-.359.244m-1.469-.108h.873q.336 0 .513-.125a.41.41 0 0 0 .183-.364.4.4 0 0 0-.183-.358q-.177-.12-.513-.119h-.873zm.922 1.28q.376 0 .564-.12.188-.119.188-.374c0-.255-.058-.294-.172-.374q-.17-.125-.541-.125h-.961v.993zm5.354-1.172q.591.136.591.7 0 .375-.282.575t-.84.2h-1.32V31.82h1.282q.497 0 .779.19a.62.62 0 0 1 .281.543.63.63 0 0 1-.132.401.77.77 0 0 1-.359.244m-1.47-.108h.873q.337 0 .514-.125a.41.41 0 0 0 .182-.364.4.4 0 0 0-.182-.358q-.177-.12-.514-.119h-.873zm.923 1.28q.375 0 .563-.12.188-.119.188-.374c0-.255-.057-.294-.171-.374q-.171-.125-.542-.125h-.961v.993zm5.558-2.208h-1.663v2.512h-.392V31.82h2.055zm1.63 2.538q-.42.001-.756-.184a1.4 1.4 0 0 1-.531-.52 1.46 1.46 0 0 1-.193-.749q0-.418.193-.749.194-.33.531-.515.336-.184.756-.184c.42 0 .532.061.757.184q.338.185.525.515.193.33.193.749 0 .417-.193.749-.187.33-.525.52a1.55 1.55 0 0 1-.757.185Zm0-.34q.31 0 .553-.136a1 1 0 0 0 .386-.397 1.2 1.2 0 0 0 .139-.58 1.2 1.2 0 0 0-.139-.58.95.95 0 0 0-.386-.391 1.1 1.1 0 0 0-.553-.141q-.309 0-.558.14a1 1 0 0 0-.386.392 1.2 1.2 0 0 0-.138.58q0 .325.138.58.143.255.386.397.249.135.558.135Zm3.811-2.561q.408 0 .74.184.332.18.519.51.188.33.188.754 0 .429-.188.76-.187.33-.519.515-.327.18-.74.179-.354 0-.641-.141a1.2 1.2 0 0 1-.464-.423v1.59h-.393V31.82h.376v.564a1.2 1.2 0 0 1 .464-.434q.292-.15.658-.151m-.028 2.56q.304 0 .552-.136a1 1 0 0 0 .387-.396 1.16 1.16 0 0 0 .144-.58 1.13 1.13 0 0 0-.144-.575 1 1 0 0 0-.387-.396 1.1 1.1 0 0 0-.552-.141q-.309 0-.558.14a1.04 1.04 0 0 0-.387.397 1.2 1.2 0 0 0-.138.575q0 .325.138.58.144.255.387.397.249.135.558.135M140 32.83q.548.004.834.238.288.234.288.673 0 .455-.31.7-.31.243-.884.238l-1.149-.005V31.82h.393v.998zm1.608-1.01H142v2.854h-.392zm-1.702 2.566q.404.005.608-.157.21-.168.21-.488 0-.315-.204-.467-.205-.152-.614-.157l-.734-.011v1.27z"/></svg>