<svg xmlns="http://www.w3.org/2000/svg" width="12" height="12" fill="none"><g clip-path="url(#a)"><path fill="#fff" d="M11.196 6.754a.38.38 0 0 0-.32.07c-.363.308-.781.56-1.241.727a3.9 3.9 0 0 1-1.408.252 4.1 4.1 0 0 1-2.9-1.203 4.12 4.12 0 0 1-1.2-2.91c0-.476.085-.937.224-1.357a3.8 3.8 0 0 1 .67-1.203.36.36 0 0 0-.057-.504.38.38 0 0 0-.32-.07 5.63 5.63 0 0 0-2.956 1.987 5.55 5.55 0 0 0 .474 7.289 5.5 5.5 0 0 0 3.904 1.622 5.53 5.53 0 0 0 3.415-1.189 5.52 5.52 0 0 0 1.952-3.063c.07-.21-.042-.406-.237-.448M9.063 9.678A4.776 4.776 0 0 1 2.706 9.3a4.8 4.8 0 0 1-1.408-3.4 4.74 4.74 0 0 1 .99-2.924A4.8 4.8 0 0 1 3.89 1.633a4.7 4.7 0 0 0-.46 2.07c0 1.33.543 2.547 1.408 3.415A4.8 4.8 0 0 0 8.24 8.53c.585 0 1.143-.098 1.659-.294.18-.07.362-.14.53-.224a5.1 5.1 0 0 1-1.367 1.665"/></g><defs><clipPath id="a"><path fill="#fff" d="M0 0h12v12H0z"/></clipPath></defs></svg>